<svg width="160" height="48" viewBox="0 0 160 48" fill="none" xmlns="http://www.w3.org/2000/svg">
<path d="M158.939 42.3333C158.939 42.9374 158.821 43.5356 158.593 44.0937C158.364 44.6518 158.029 45.1588 157.607 45.5858C157.185 46.0127 156.683 46.3513 156.132 46.582C155.58 46.8128 154.989 46.9312 154.392 46.9306H5.60781C4.4019 46.9318 3.24487 46.4482 2.39117 45.5861C1.53746 44.724 1.05699 43.554 1.05542 42.3333V5.67163C1.05699 4.45042 1.53727 3.27976 2.39081 2.41668C3.24434 1.55361 4.40136 1.06868 5.60781 1.06836H154.391C154.988 1.06836 155.579 1.18744 156.131 1.41879C156.683 1.65014 157.184 1.98923 157.606 2.4167C158.028 2.84417 158.363 3.35164 158.592 3.91012C158.82 4.46861 158.938 5.06717 158.938 5.67163L158.939 42.3333Z" fill="white"/>
<path d="M154.392 48H5.60777C4.12224 47.9997 2.6975 47.4029 1.64617 46.3405C0.594853 45.2781 0.00282657 43.8369 0 42.3332L0 5.67276C0.00219763 4.16831 0.593834 2.72617 1.64512 1.6627C2.69641 0.599227 4.1215 0.00126981 5.60777 0L154.391 0C155.877 0.00190342 157.302 0.600064 158.353 1.6634C159.404 2.72673 159.996 4.1685 159.999 5.67276V42.3332C160.001 45.4589 157.481 48 154.392 48Z" fill="#A6A6A6"/>
<path d="M158.939 42.3333C158.939 42.9374 158.821 43.5356 158.593 44.0937C158.364 44.6518 158.029 45.1588 157.607 45.5858C157.185 46.0127 156.683 46.3513 156.132 46.582C155.58 46.8128 154.989 46.9312 154.392 46.9306H5.60781C4.4019 46.9318 3.24487 46.4482 2.39117 45.5861C1.53746 44.724 1.05699 43.554 1.05542 42.3333V5.67163C1.05699 4.45042 1.53727 3.27976 2.39081 2.41668C3.24434 1.55361 4.40136 1.06868 5.60781 1.06836H154.391C154.988 1.06836 155.579 1.18744 156.131 1.41879C156.683 1.65014 157.184 1.98923 157.606 2.4167C158.028 2.84417 158.363 3.35164 158.592 3.91012C158.82 4.46861 158.938 5.06717 158.938 5.67163L158.939 42.3333Z" fill="black"/>
<path d="M35.7265 23.7473C35.6922 19.8786 38.8559 17.9965 39.0006 17.9089C37.2088 15.2645 34.4316 14.9032 33.4557 14.8744C31.1232 14.626 28.8606 16.2872 27.6724 16.2872C26.4605 16.2872 24.6308 14.8984 22.6587 14.9393C20.1211 14.9789 17.747 16.4661 16.445 18.7755C13.7579 23.4844 15.762 30.4043 18.3364 34.2106C19.6242 36.0759 21.129 38.156 23.0987 38.0828C25.0256 38.0036 25.7454 36.8405 28.0708 36.8405C30.3749 36.8405 31.0508 38.0828 33.0596 38.036C35.1277 38.0036 36.4297 36.1635 37.6725 34.2826C39.1607 32.1472 39.7584 30.0418 39.7821 29.9338C39.7346 29.917 35.7669 28.383 35.7265 23.7473ZM31.9319 12.3706C32.9683 11.0586 33.6774 9.2737 33.4806 7.4624C31.9805 7.52962 30.1045 8.51269 29.0243 9.79584C28.0685 10.9266 27.2147 12.7799 27.4352 14.5227C29.1203 14.65 30.8504 13.6621 31.9319 12.3706Z" fill="white"/>
<path d="M154.392 0H74.6987L105.913 48H154.392C155.878 47.9987 157.303 47.4011 158.354 46.3382C159.405 45.2752 159.997 43.8337 160 42.3296V5.67276C159.997 4.16841 159.406 2.72645 158.354 1.66305C157.303 0.599646 155.878 0.00158674 154.392 0V0Z" fill="url(#paint0_linear_8_20)"/>
<path d="M63.6372 37.8152H60.9442L59.469 33.1231H54.3415L52.9363 37.8152H50.3145L55.3957 21.8412H58.5334L63.6372 37.8152ZM59.0243 31.1546L57.6903 26.9834C57.5492 26.5573 57.2836 25.5538 56.8946 23.9742H56.8472C56.6906 24.6536 56.4404 25.657 56.0977 26.9834L54.7862 31.1546H59.0243ZM76.6789 31.9144C76.6789 33.8733 76.1536 35.4217 75.1018 36.5584C74.1602 37.5703 72.9898 38.0757 71.5941 38.0757C70.0869 38.0757 69.0031 37.5319 68.3449 36.442V42.4857H65.8168V30.0827C65.8168 28.8523 65.7847 27.5908 65.7231 26.2968H67.9465L68.0876 28.1225H68.135C68.9782 26.747 70.2577 26.0592 71.9748 26.0592C73.3171 26.0592 74.4377 26.5957 75.3342 27.67C76.2295 28.7467 76.6789 30.1607 76.6789 31.9144ZM74.1033 32.008C74.1033 30.8869 73.8543 29.9626 73.3539 29.234C72.8072 28.4766 72.0732 28.0973 71.153 28.0973C70.5292 28.0973 69.9624 28.3086 69.4561 28.7251C68.9485 29.1452 68.6165 29.6938 68.4612 30.3731C68.3918 30.6272 68.3524 30.8887 68.3438 31.1522V33.0739C68.3438 33.9105 68.5975 34.6175 69.1051 35.1961C69.6126 35.7722 70.2719 36.0615 71.083 36.0615C72.0352 36.0615 72.7764 35.6882 73.3064 34.9476C73.8377 34.2046 74.1033 33.2251 74.1033 32.008ZM89.7669 31.9144C89.7669 33.8733 89.2416 35.4217 88.1897 36.5584C87.247 37.5703 86.0778 38.0757 84.6809 38.0757C83.1737 38.0757 82.0898 37.5319 81.4317 36.442V42.4857H78.9035V30.0827C78.9035 28.8523 78.8715 27.5908 78.8099 26.2968H81.0333L81.1744 28.1225H81.2218C82.0638 26.747 83.3433 26.0592 85.0615 26.0592C86.4027 26.0592 87.5233 26.5957 88.4222 27.67C89.3163 28.7467 89.7669 30.1607 89.7669 31.9144ZM87.1901 32.008C87.1901 30.8869 86.9399 29.9626 86.4395 29.234C85.8928 28.4766 85.1611 28.0973 84.2409 28.0973C83.6172 28.0973 83.0504 28.3086 82.5417 28.7251C82.0341 29.1452 81.7033 29.6938 81.5479 30.3731C81.4708 30.69 81.4293 30.9481 81.4293 31.1522V33.0739C81.4293 33.9105 81.6843 34.6175 82.1895 35.1961C82.697 35.771 83.3563 36.0615 84.1698 36.0615C85.1232 36.0615 85.8643 35.6882 86.3932 34.9476C86.9245 34.2046 87.1901 33.2251 87.1901 32.008ZM104.4 33.3344C104.4 34.6943 103.93 35.7998 102.997 36.6533C101.97 37.5847 100.537 38.0517 98.6985 38.0517C97.0004 38.0517 95.6391 37.7204 94.6122 37.0566L95.1968 34.9236C96.3055 35.5886 97.5234 35.9199 98.8491 35.9199C99.8025 35.9199 100.544 35.7014 101.073 35.2681C101.603 34.8336 101.871 34.2526 101.871 33.5276C101.871 32.8782 101.649 32.3345 101.214 31.8916C100.776 31.4498 100.053 31.0381 99.0365 30.66C96.2735 29.6169 94.8909 28.0913 94.8909 26.0844C94.8909 24.7736 95.3794 23.7005 96.3542 22.8615C97.3289 22.0237 98.6215 21.6047 100.229 21.6047C101.665 21.6047 102.862 21.858 103.812 22.3633L103.177 24.4495C102.283 23.9598 101.274 23.7149 100.145 23.7149C99.2535 23.7149 98.5539 23.937 98.0534 24.3787C97.6325 24.7736 97.419 25.2549 97.419 25.8263C97.419 26.4565 97.6621 26.9798 98.1459 27.3903C98.5657 27.7684 99.3318 28.1801 100.439 28.6219C101.798 29.1764 102.797 29.8222 103.436 30.564C104.08 31.3058 104.4 32.2313 104.4 33.3344ZM112.78 28.2174H109.994V33.8097C109.994 35.2321 110.484 35.9415 111.469 35.9415C111.92 35.9415 112.295 35.9031 112.592 35.8226L112.662 37.766C112.164 37.9544 111.508 38.0493 110.696 38.0493C109.697 38.0493 108.917 37.7408 108.354 37.1238C107.793 36.5068 107.51 35.4733 107.51 34.0185V28.2126H105.85V26.292H107.51V24.183L109.994 23.4244V26.292H112.78V28.2174ZM125.329 31.9612C125.329 33.7317 124.828 35.1853 123.83 36.322C122.785 37.4923 121.395 38.0757 119.663 38.0757C117.991 38.0757 116.661 37.5151 115.67 36.3952C114.679 35.2729 114.183 33.8589 114.183 32.1532C114.183 30.3683 114.695 28.9063 115.716 27.7696C116.74 26.6317 118.118 26.0628 119.85 26.0628C121.52 26.0628 122.861 26.6245 123.876 27.7456C124.846 28.8331 125.329 30.2375 125.329 31.9612ZM122.708 32.02C122.708 30.9649 122.483 30.0599 122.031 29.3025C121.501 28.3878 120.742 27.9305 119.759 27.9305C118.746 27.9305 117.969 28.3878 117.441 29.3025C116.988 30.0599 116.762 30.9805 116.762 32.068C116.762 33.1243 116.988 34.0318 117.441 34.7868C117.987 35.7014 118.75 36.1587 119.737 36.1587C120.704 36.1587 121.462 35.6918 122.01 34.764C122.474 33.9885 122.708 33.0775 122.708 32.02ZM133.55 28.5474C133.287 28.4994 133.02 28.4757 132.753 28.4766C131.864 28.4766 131.176 28.8151 130.692 29.4969C130.272 30.0971 130.061 30.8557 130.061 31.7715V37.8152H127.533V29.9242C127.535 28.7151 127.511 27.5061 127.46 26.298H129.662L129.754 28.5018H129.824C130.092 27.7444 130.512 27.1335 131.088 26.6761C131.616 26.2765 132.257 26.0601 132.916 26.0592C133.149 26.0592 133.36 26.076 133.548 26.106L133.55 28.5474ZM144.857 31.5111C144.863 31.9001 144.832 32.2888 144.764 32.6718H137.18C137.208 33.8097 137.576 34.6811 138.28 35.2813C138.919 35.8166 139.746 36.0855 140.761 36.0855C141.884 36.0855 142.909 35.9055 143.83 35.5418L144.226 37.3171C143.149 37.7924 141.878 38.0289 140.411 38.0289C138.647 38.0289 137.262 37.5031 136.254 36.454C135.248 35.4037 134.744 33.9921 134.744 32.2241C134.744 30.4884 135.212 29.042 136.15 27.8885C137.132 26.6569 138.459 26.0412 140.129 26.0412C141.769 26.0412 143.01 26.6569 143.854 27.8885C144.521 28.8643 144.857 30.0743 144.857 31.5111ZM142.446 30.8473C142.464 30.0875 142.298 29.4333 141.955 28.8799C141.518 28.1669 140.844 27.8116 139.942 27.8116C139.115 27.8116 138.441 28.1585 137.929 28.8547C137.508 29.4081 137.258 30.0731 137.181 30.8449L142.446 30.8473Z" fill="white"/>
<path d="M53.6123 16.1936C52.9091 16.1936 52.3008 16.1588 51.7944 16.1V8.37706C52.5026 8.26633 53.2183 8.21175 53.9348 8.21382C56.8342 8.21382 58.1694 9.65782 58.1694 12.0117C58.1694 14.7268 56.5923 16.1936 53.6123 16.1936ZM54.0368 9.20409C53.6455 9.20409 53.3123 9.2281 53.036 9.28571V15.1565C53.1854 15.1805 53.4724 15.1913 53.8756 15.1913C55.7752 15.1913 56.8567 14.0966 56.8567 12.0465C56.8567 10.2184 55.8784 9.20409 54.0368 9.20409ZM62.3305 16.2524C60.6964 16.2524 59.6375 15.0173 59.6375 13.3404C59.6375 11.5927 60.719 10.3468 62.423 10.3468C64.0333 10.3468 65.116 11.5231 65.116 13.248C65.116 15.0173 64.0001 16.2524 62.3305 16.2524ZM62.3779 11.2663C61.4803 11.2663 60.9051 12.1161 60.9051 13.3044C60.9051 14.4699 61.4921 15.3198 62.3661 15.3198C63.24 15.3198 63.827 14.4111 63.827 13.2804C63.827 12.1281 63.2519 11.2663 62.3779 11.2663ZM74.4342 10.4632L72.6851 16.124H71.5456L70.821 13.6657C70.6409 13.0644 70.4909 12.4543 70.3716 11.8376H70.3479C70.2566 12.4546 70.0834 13.0728 69.8996 13.6657L69.1288 16.124H67.9774L66.3315 10.4632H67.6086L68.2418 13.1544C68.3913 13.7954 68.517 14.4003 68.6213 14.9717H68.645C68.7363 14.4951 68.8857 13.8998 69.1051 13.1664L69.8996 10.4644H70.9123L71.6724 13.1088C71.8562 13.7497 72.0057 14.3787 72.1219 14.9729H72.1551C72.2357 14.3907 72.3626 13.7725 72.5345 13.1088L73.214 10.4644L74.4342 10.4632ZM80.8733 16.124H79.6305V12.8735C79.6305 11.8724 79.251 11.3707 78.5028 11.3707C77.7664 11.3707 77.26 12.0117 77.26 12.7571V16.124H76.0173V12.0813C76.0173 11.5807 76.0054 11.0442 75.9711 10.462H77.0644L77.1225 11.3359H77.1569C77.4913 10.7309 78.1696 10.3468 78.9297 10.3468C80.1037 10.3468 80.8744 11.2555 80.8744 12.7343L80.8733 16.124ZM84.3003 16.124H83.0564V7.86572H84.3003V16.124ZM88.8313 16.2524C87.1985 16.2524 86.1383 15.0173 86.1383 13.3404C86.1383 11.5927 87.2198 10.3468 88.9226 10.3468C90.5342 10.3468 91.6157 11.5231 91.6157 13.248C91.6168 15.0173 90.4998 16.2524 88.8313 16.2524ZM88.8776 11.2663C87.9799 11.2663 87.4048 12.1161 87.4048 13.3044C87.4048 14.4699 87.993 15.3198 88.8645 15.3198C89.7397 15.3198 90.3255 14.4111 90.3255 13.2804C90.3267 12.1281 89.7527 11.2663 88.8776 11.2663ZM96.5155 16.124L96.4254 15.4722H96.3922C96.0127 15.9968 95.4589 16.2524 94.7569 16.2524C93.7549 16.2524 93.0434 15.5418 93.0434 14.5864C93.0434 13.1892 94.2399 12.4666 96.3115 12.4666V12.3622C96.3115 11.6168 95.9214 11.2435 95.1506 11.2435C94.5992 11.2435 94.1154 11.3839 93.6897 11.6636L93.4371 10.8365C93.9541 10.51 94.5992 10.3468 95.3569 10.3468C96.8179 10.3468 97.5555 11.127 97.5555 12.6886V14.7736C97.5555 15.345 97.5804 15.7879 97.6361 16.1252L96.5155 16.124ZM96.3447 13.3044C94.9644 13.3044 94.2719 13.6429 94.2719 14.4459C94.2719 15.0401 94.6288 15.3306 95.1245 15.3306C95.7566 15.3306 96.3447 14.842 96.3447 14.1783V13.3044ZM103.59 16.124L103.532 15.2153H103.498C103.141 15.9019 102.541 16.2524 101.702 16.2524C100.354 16.2524 99.3555 15.0521 99.3555 13.3632C99.3555 11.5927 100.391 10.3456 101.804 10.3456C102.553 10.3456 103.083 10.6013 103.381 11.115H103.406V7.86572H104.65V14.5984C104.65 15.1457 104.663 15.6583 104.697 16.124H103.59ZM103.406 12.7931C103.406 12.0009 102.888 11.3251 102.097 11.3251C101.176 11.3251 100.613 12.1521 100.613 13.3164C100.613 14.4579 101.197 15.2394 102.072 15.2394C102.854 15.2394 103.406 14.5516 103.406 13.7365V12.7931ZM112.537 16.2524C110.904 16.2524 109.845 15.0173 109.845 13.3404C109.845 11.5927 110.927 10.3468 112.63 10.3468C114.241 10.3468 115.323 11.5231 115.323 13.248C115.324 15.0173 114.208 16.2524 112.537 16.2524ZM112.583 11.2663C111.687 11.2663 111.112 12.1161 111.112 13.3044C111.112 14.4699 111.699 15.3198 112.572 15.3198C113.447 15.3198 114.033 14.4111 114.033 13.2804C114.035 12.1281 113.46 11.2663 112.583 11.2663ZM122.006 16.124H120.762V12.8735C120.762 11.8724 120.383 11.3707 119.634 11.3707C118.898 11.3707 118.393 12.0117 118.393 12.7571V16.124H117.149V12.0813C117.149 11.5807 117.137 11.0442 117.103 10.462H118.196L118.254 11.3359H118.288C118.622 10.7309 119.301 10.3456 120.06 10.3456C121.234 10.3456 122.006 11.2543 122.006 12.7331V16.124ZM130.367 11.4067H129V14.1555C129 14.8552 129.24 15.2045 129.723 15.2045C129.943 15.2045 130.127 15.1805 130.275 15.1457L130.309 16.1012C130.068 16.1948 129.746 16.2416 129.345 16.2416C128.366 16.2416 127.78 15.6943 127.78 14.2611V11.4067H126.964V10.4632H127.78V9.42615L129 9.05285V10.462H130.367V11.4067ZM136.946 16.124H135.705V12.8975C135.705 11.8844 135.326 11.3719 134.577 11.3719C133.933 11.3719 133.333 11.8148 133.333 12.7115V16.124H132.091V7.86572H133.333V11.2663H133.358C133.749 10.6493 134.316 10.3456 135.039 10.3456C136.223 10.3456 136.946 11.2771 136.946 12.7571V16.124ZM143.686 13.5961H139.957C139.981 14.668 140.682 15.273 141.719 15.273C142.271 15.273 142.778 15.1793 143.226 15.0053L143.42 15.8791C142.891 16.112 142.268 16.2284 141.544 16.2284C139.795 16.2284 138.759 15.1097 138.759 13.3752C138.759 11.6396 139.819 10.3348 141.404 10.3348C142.833 10.3348 143.729 11.4067 143.729 13.0259C143.737 13.217 143.723 13.4084 143.686 13.5961ZM142.547 12.6995C142.547 11.8256 142.112 11.2086 141.317 11.2086C140.603 11.2086 140.039 11.8376 139.958 12.6995H142.547Z" fill="white"/>
<defs>
<linearGradient id="paint0_linear_8_20" x1="117.348" y1="48.1274" x2="117.348" y2="-124.984" gradientUnits="userSpaceOnUse">
<stop stop-color="#1A1A1A" stop-opacity="0.1"/>
<stop offset="0.123" stop-color="#212121" stop-opacity="0.151"/>
<stop offset="0.308" stop-color="#353535" stop-opacity="0.227"/>
<stop offset="0.532" stop-color="#575757" stop-opacity="0.318"/>
<stop offset="0.783" stop-color="#858585" stop-opacity="0.421"/>
<stop offset="1" stop-color="#B3B3B3" stop-opacity="0.51"/>
</linearGradient>
</defs>
</svg>
