<svg width="40" height="40" viewBox="0 0 40 40" fill="none" xmlns="http://www.w3.org/2000/svg">
<path fill-rule="evenodd" clip-rule="evenodd" d="M20 0C8.95433 0 0 8.95433 0 20C0 31.0457 8.95433 40 20 40C31.0457 40 40 31.0457 40 20C40 8.95433 31.0457 0 20 0ZM15.6028 9.39775C16.7405 9.346 17.1041 9.33333 20.001 9.33333H19.9977C22.8955 9.33333 23.2577 9.346 24.3955 9.39775C25.5311 9.44975 26.3066 9.62958 26.9867 9.89333C27.6888 10.1656 28.2822 10.53 28.8755 11.1233C29.4689 11.7162 29.8333 12.3113 30.1067 13.0129C30.3689 13.6912 30.5489 14.4663 30.6022 15.6018C30.6533 16.7397 30.6667 17.1032 30.6667 20.0001C30.6667 22.897 30.6533 23.2597 30.6022 24.3975C30.5489 25.5326 30.3689 26.3079 30.1067 26.9864C29.8333 27.6877 29.4689 28.2828 28.8755 28.8758C28.2828 29.4691 27.6887 29.8344 26.9873 30.1069C26.3086 30.3707 25.5326 30.5504 24.3971 30.6024C23.2593 30.6542 22.8968 30.6669 19.9997 30.6669C17.103 30.6669 16.7397 30.6542 15.6018 30.6024C14.4665 30.5504 13.6912 30.3707 13.0125 30.1069C12.3113 29.8344 11.7162 29.4691 11.1236 28.8758C10.5304 28.2828 10.166 27.6877 9.89333 26.9862C9.62975 26.3079 9.45 25.5328 9.39775 24.3972C9.34625 23.2595 9.33333 22.897 9.33333 20.0001C9.33333 17.1032 9.34667 16.7394 9.39758 15.6016C9.44867 14.4665 9.62867 13.6912 9.89308 13.0127C10.1664 12.3113 10.5309 11.7162 11.1242 11.1233C11.7172 10.5302 12.3123 10.1657 13.0138 9.89333C13.6921 9.62958 14.4672 9.44975 15.6028 9.39775Z" fill="white"/>
<path fill-rule="evenodd" clip-rule="evenodd" d="M19.0443 11.2561C19.23 11.2558 19.4299 11.2559 19.6456 11.256L20.0012 11.2561C22.8492 11.2561 23.1868 11.2663 24.3114 11.3174C25.3514 11.365 25.9158 11.5388 26.2918 11.6848C26.7897 11.8781 27.1445 12.1093 27.5177 12.4826C27.891 12.8559 28.1221 13.2115 28.3159 13.7093C28.4619 14.0848 28.6359 14.6493 28.6833 15.6893C28.7343 16.8138 28.7454 17.1515 28.7454 19.9982C28.7454 22.8449 28.7343 23.1827 28.6833 24.3072C28.6357 25.3472 28.4619 25.9116 28.3159 26.2872C28.1226 26.7849 27.891 27.1394 27.5177 27.5125C27.1443 27.8858 26.7898 28.117 26.2918 28.3103C25.9163 28.457 25.3514 28.6303 24.3114 28.6778C23.1869 28.729 22.8492 28.7401 20.0012 28.7401C17.1529 28.7401 16.8153 28.729 15.6908 28.6778C14.6508 28.6298 14.0864 28.4561 13.7102 28.3101C13.2124 28.1168 12.8568 27.8856 12.4835 27.5123C12.1102 27.1389 11.8791 26.7843 11.6853 26.2863C11.5393 25.9108 11.3653 25.3463 11.3179 24.3063C11.2668 23.1818 11.2566 22.844 11.2566 19.9955C11.2566 17.1471 11.2668 16.8111 11.3179 15.6866C11.3655 14.6466 11.5393 14.0822 11.6853 13.7062C11.8786 13.2083 12.1102 12.8528 12.4835 12.4795C12.8568 12.1062 13.2124 11.875 13.7102 11.6813C14.0862 11.5346 14.6508 11.3613 15.6908 11.3134C16.6748 11.269 17.0563 11.2557 19.0443 11.2534V11.2561ZM25.695 13.0273C24.9883 13.0273 24.4149 13.5999 24.4149 14.3068C24.4149 15.0135 24.9883 15.5868 25.695 15.5868C26.4017 15.5868 26.975 15.0135 26.975 14.3068C26.975 13.6002 26.4017 13.0268 25.695 13.0268V13.0273ZM14.5233 20.0007C14.5233 16.9756 16.9758 14.5229 20.0009 14.5228C23.0261 14.5228 25.4781 16.9755 25.4781 20.0007C25.4781 23.0258 23.0263 25.4774 20.0012 25.4774C16.976 25.4774 14.5233 23.0258 14.5233 20.0007Z" fill="white"/>
<path d="M20.0011 16.4443C21.9647 16.4443 23.5567 18.0362 23.5567 19.9999C23.5567 21.9635 21.9647 23.5555 20.0011 23.5555C18.0374 23.5555 16.4456 21.9635 16.4456 19.9999C16.4456 18.0362 18.0374 16.4443 20.0011 16.4443Z" fill="white"/>
</svg>
