<svg width="62" height="24" viewBox="0 0 62 24" fill="none" xmlns="http://www.w3.org/2000/svg">
<g clip-path="url(#clip0_84_39)">
<g clip-path="url(#clip1_84_39)">
<path d="M18.4593 11.7037C18.5867 11.5233 18.6012 11.2868 18.4953 11.0934L16.4073 7.24812L18.389 3.35024C18.4889 3.15365 18.4688 2.91754 18.3365 2.74106C18.2052 2.56459 17.9842 2.47706 17.7672 2.51836L13.4669 3.31424L10.3713 0.224241C10.2149 0.0678879 9.98233 0.0124762 9.77551 0.085535C9.56692 0.156123 9.41657 0.339653 9.38798 0.558123L8.81692 4.89577L4.9208 6.88565C4.72492 6.98589 4.60245 7.18883 4.60527 7.40942C4.60774 7.63001 4.73621 7.82977 4.93527 7.92401L8.88398 9.80483L9.57151 14.1287C9.6061 14.3461 9.76139 14.5254 9.97245 14.5911C10.0286 14.6084 10.0864 14.6168 10.1436 14.6168C10.3 14.6168 10.4524 14.5533 10.564 14.4361L13.5746 11.2607L17.896 11.9415C18.1141 11.9761 18.3322 11.884 18.4593 11.7037ZM13.4542 10.0688C13.2622 10.0385 13.0744 10.1041 12.9439 10.2421L10.5312 12.7868L9.98021 9.32165C9.95092 9.13318 9.82986 8.97189 9.65727 8.89001L6.49351 7.3833L9.61457 5.78871C9.78433 5.70224 9.90045 5.53742 9.92551 5.34859L10.3826 1.87248L12.8637 4.34871C12.9986 4.48389 13.1913 4.54636 13.3787 4.50824L16.8241 3.87012L15.2362 6.99436C15.1497 7.16412 15.1522 7.36565 15.2436 7.53295L16.9162 10.6138L13.4542 10.0688Z" fill="white"/>
<path d="M10.0084 18.5055L7.39449 17.2805L6.92402 14.4315C6.89049 14.2272 6.74331 14.0602 6.54567 14.0002C6.34696 13.9395 6.13273 13.9971 5.99226 14.1488L4.01755 16.2552L1.16332 15.8228C0.962845 15.79 0.755315 15.8797 0.636727 16.0487C0.518845 16.2185 0.506845 16.4405 0.606727 16.6215L2.00014 19.15L0.707668 21.7328C0.615551 21.9174 0.635315 22.1391 0.760609 22.3032C0.885551 22.4684 1.09414 22.5453 1.29567 22.5089L4.13014 21.9644L6.18567 23.9909C6.28908 24.0926 6.42673 24.1473 6.56684 24.1473C6.62684 24.1473 6.68684 24.1378 6.74508 24.1169C6.94026 24.0499 7.08037 23.8766 7.10543 23.6715L7.46367 20.8067L10.0274 19.4786C10.211 19.3837 10.325 19.1927 10.3204 18.9859C10.3161 18.7798 10.1951 18.5931 10.0084 18.5055ZM6.71084 19.9741C6.55237 20.0564 6.44402 20.2109 6.42179 20.3888L6.16449 22.4458L4.68884 20.9913C4.58649 20.89 4.44955 20.8346 4.30767 20.8346C4.27379 20.8346 4.23955 20.8381 4.20567 20.8441L2.17061 21.2348L3.09884 19.3808C3.17896 19.2213 3.17473 19.0325 3.08861 18.8761L2.08837 17.0613L4.13684 17.3715C4.31473 17.3987 4.49155 17.3366 4.61367 17.206L6.03143 15.694L6.36955 17.7389C6.39849 17.9154 6.51249 18.0661 6.67449 18.142L8.54967 19.0219L6.71084 19.9741Z" fill="white"/>
<path d="M21.6904 19.7913L20.0221 18.4596L20.1756 16.3282C20.1901 16.1218 20.087 15.9252 19.9084 15.8207C19.7305 15.7155 19.5082 15.7205 19.3352 15.8355L17.5511 17.0094L15.5732 16.2044C15.3812 16.1271 15.1624 16.1645 15.0082 16.3014C14.8536 16.4387 14.7901 16.6519 14.8448 16.8513L15.4095 18.9118L14.0334 20.5431C13.9003 20.7012 13.8689 20.9207 13.9515 21.1102C14.0334 21.2998 14.2169 21.4261 14.4234 21.4353L16.5562 21.5355L17.6853 23.3496C17.7851 23.5099 17.9595 23.6055 18.1458 23.6055C18.1635 23.6055 18.1815 23.6045 18.1991 23.6031C18.4045 23.5829 18.5814 23.4478 18.6537 23.2544L19.4072 21.2553L21.4811 20.7425C21.6816 20.6931 21.8369 20.5335 21.881 20.3313C21.9262 20.1298 21.8521 19.9201 21.6904 19.7913ZM18.8701 20.2699C18.6964 20.3126 18.556 20.4379 18.4924 20.6052L18.0258 21.8422L17.3277 20.7199C17.2338 20.5681 17.0704 20.4725 16.8925 20.464L15.5732 20.4019L16.4242 19.3935C16.5392 19.2573 16.5802 19.0727 16.5329 18.9001L16.1835 17.6249L17.4068 18.1229C17.5705 18.1889 17.7594 18.1716 17.9097 18.0728L19.0137 17.3472L18.9188 18.6668C18.9054 18.8447 18.9813 19.0184 19.1214 19.1295L20.152 19.9526L18.8701 20.2699Z" fill="white"/>
</g>
</g>
<path d="M31.0545 7.80976C31.0545 8.40976 30.951 8.93328 30.7439 9.38034C30.5345 9.8274 30.2498 10.1992 29.8898 10.4956C29.5298 10.7945 29.1086 11.018 28.6263 11.1662C28.1439 11.3145 27.6251 11.3886 27.0698 11.3886C26.8557 11.3886 26.6204 11.3603 26.3639 11.3039C26.1098 11.2474 25.851 11.1768 25.5875 11.0921C25.3263 11.005 25.0745 10.9133 24.8322 10.8168C24.5898 10.718 24.3745 10.625 24.1863 10.538L24.4757 7.83799C24.8475 8.05917 25.2592 8.22858 25.711 8.34623C26.1627 8.46152 26.6075 8.51917 27.0451 8.51917C27.1275 8.51917 27.2275 8.51564 27.3451 8.50858C27.4627 8.50152 27.5757 8.48152 27.6839 8.44858C27.7898 8.41564 27.8804 8.3674 27.9557 8.30387C28.0286 8.23799 28.0651 8.14387 28.0651 8.02152C28.0651 7.93681 28.0392 7.86505 27.9875 7.80623C27.9357 7.7474 27.8675 7.70034 27.7827 7.66505C27.7004 7.6274 27.6075 7.59799 27.5039 7.57681C27.398 7.55799 27.2945 7.54387 27.1933 7.53446C27.0945 7.5274 27.0004 7.52387 26.911 7.52387C26.8239 7.52387 26.7545 7.52387 26.7027 7.52387C26.3263 7.52387 25.9851 7.45799 25.6792 7.32623C25.371 7.19446 25.1063 7.01211 24.8851 6.77917C24.6639 6.54623 24.4922 6.26858 24.3698 5.94623C24.2475 5.62623 24.1863 5.27799 24.1863 4.90152C24.1863 4.38623 24.2898 3.92387 24.4969 3.51446C24.7063 3.1074 24.9839 2.76034 25.3298 2.47328C25.678 2.18623 26.0769 1.96623 26.5263 1.81328C26.9757 1.6627 27.4404 1.5874 27.9204 1.5874C28.1345 1.5874 28.3557 1.59446 28.5839 1.60858C28.8098 1.6227 29.0357 1.64976 29.2616 1.68976C29.4875 1.72976 29.7075 1.78034 29.9216 1.84152C30.1357 1.9027 30.338 1.97917 30.5286 2.07093L30.2816 4.73211C29.9851 4.63093 29.6733 4.54623 29.3463 4.47799C29.0216 4.40976 28.7039 4.37564 28.3933 4.37564C28.3369 4.37564 28.2639 4.37681 28.1745 4.37917C28.0851 4.38152 27.991 4.38858 27.8922 4.40034C27.7933 4.41211 27.6945 4.42858 27.5957 4.44976C27.4945 4.47093 27.4039 4.50034 27.3239 4.53799C27.2463 4.57564 27.1839 4.62505 27.1369 4.68623C27.0875 4.7474 27.0651 4.81917 27.0698 4.90152C27.0745 4.99799 27.111 5.07564 27.1792 5.13446C27.2451 5.19328 27.3322 5.23917 27.4404 5.27211C27.5463 5.30505 27.6639 5.3274 27.7933 5.33917C27.9228 5.35328 28.051 5.36152 28.178 5.36387C28.3051 5.36623 28.4228 5.36623 28.531 5.36387C28.6392 5.36152 28.7286 5.36505 28.7992 5.37446C29.1498 5.39564 29.4651 5.46976 29.7451 5.59681C30.0228 5.72387 30.2592 5.89211 30.4545 6.10152C30.6498 6.31093 30.798 6.56034 30.8992 6.84975C31.0028 7.14152 31.0545 7.46152 31.0545 7.80976ZM31.6298 1.84858H37.6722C37.6463 2.25799 37.6227 2.66387 37.6016 3.06623C37.578 3.46858 37.5486 3.87446 37.5133 4.28387L34.7357 4.42858L34.6722 5.25446H36.6239L36.4792 7.2874L34.5133 7.35093L34.4498 8.3074H36.0733H37.2275C37.2016 8.78976 37.1745 9.2674 37.1463 9.74034C37.118 10.2133 37.0922 10.6886 37.0686 11.1662L31.4216 11.2968L31.6298 1.84858ZM42.8957 1.91211L45.9098 2.10976L43.5098 11.2298L40.2592 11.4133L37.3122 2.20152L40.418 1.91211L41.6745 7.2874L42.8957 1.91211ZM46.2839 1.84858H52.3228C52.2969 2.25799 52.2733 2.66387 52.2522 3.06623C52.231 3.46858 52.2028 3.87446 52.1675 4.28387L49.3898 4.42858L49.3228 5.25446H51.2745L51.1333 7.2874L49.1675 7.35093L49.1004 8.3074H50.7239H51.878C51.8522 8.78976 51.8251 9.2674 51.7969 9.74034C51.7686 10.2133 51.7439 10.6886 51.7227 11.1662L46.0722 11.2968L46.2839 1.84858ZM58.3651 2.00387L61.4604 1.90152L60.9875 10.785L57.5533 11.0992L55.718 6.34152L55.4286 11.1909H52.4816L52.718 1.90152L55.9933 1.7427L58.2628 6.46152L58.3651 2.00387Z" fill="white"/>
<path d="M31.1499 18.7847C31.1499 19.3923 31.0443 19.9237 30.8332 20.3787C30.6244 20.8315 30.3371 21.2092 29.9711 21.5118C29.6052 21.8121 29.177 22.0373 28.6868 22.1874C28.1988 22.3375 27.6734 22.4126 27.1104 22.4126C26.8922 22.4126 26.6541 22.3844 26.3961 22.3281C26.1357 22.2695 25.8729 22.1979 25.6079 22.1135C25.3428 22.0267 25.0871 21.9329 24.8408 21.832C24.5945 21.7335 24.3763 21.6396 24.1863 21.5505L24.4783 18.8129C24.856 19.0381 25.2736 19.2093 25.731 19.3266C26.1908 19.4439 26.6412 19.5026 27.0822 19.5026C27.1667 19.5026 27.2687 19.4991 27.3883 19.492C27.508 19.4873 27.6229 19.4674 27.7332 19.4322C27.8411 19.3994 27.9326 19.3501 28.0076 19.2844C28.0827 19.2187 28.1202 19.1237 28.1202 18.9994C28.1202 18.9149 28.0933 18.8422 28.0393 18.7812C27.9877 18.7226 27.9197 18.6745 27.8352 18.637C27.7508 18.5994 27.6558 18.5701 27.5502 18.549C27.4423 18.5302 27.3379 18.5162 27.237 18.5068C27.1338 18.4974 27.0388 18.4927 26.952 18.4927C26.8629 18.4927 26.7913 18.4927 26.7374 18.4927C26.3573 18.4927 26.0113 18.427 25.6993 18.2956C25.385 18.1619 25.1164 17.9766 24.8935 17.7397C24.6707 17.5028 24.4971 17.2213 24.3728 16.8952C24.2484 16.5691 24.1863 16.2161 24.1863 15.836C24.1863 15.3129 24.2918 14.8437 24.503 14.4285C24.7117 14.0157 24.9932 13.6638 25.3475 13.3729C25.6993 13.082 26.1028 12.8592 26.5579 12.7043C27.0154 12.5495 27.4869 12.4721 27.9725 12.4721C28.1906 12.4721 28.4146 12.4803 28.6445 12.4967C28.8744 12.5108 29.1043 12.5378 29.3342 12.5777C29.5618 12.6175 29.7834 12.6692 29.9993 12.7325C30.2174 12.7935 30.4239 12.8709 30.6186 12.9647L30.3652 15.6636C30.0649 15.5604 29.7494 15.4748 29.4187 15.4067C29.0879 15.3387 28.7653 15.3047 28.451 15.3047C28.3947 15.3047 28.3208 15.3059 28.2293 15.3082C28.1378 15.3106 28.0428 15.3164 27.9443 15.3258C27.8434 15.3375 27.7426 15.3551 27.6417 15.3786C27.5408 15.3997 27.4505 15.429 27.3708 15.4666C27.291 15.5041 27.2265 15.5545 27.1772 15.6179C27.128 15.6789 27.1057 15.7516 27.1104 15.836C27.1151 15.9322 27.1514 16.0108 27.2194 16.0718C27.2875 16.1304 27.3766 16.1774 27.4869 16.2125C27.5948 16.2454 27.7144 16.2677 27.8458 16.2794C27.9748 16.2935 28.1038 16.3017 28.2328 16.304C28.3619 16.3064 28.4815 16.3064 28.5918 16.304C28.702 16.3017 28.7923 16.3052 28.8627 16.3146C29.2193 16.3357 29.5383 16.4108 29.8198 16.5398C30.1036 16.6688 30.3441 16.8389 30.5411 17.05C30.7382 17.2635 30.8895 17.518 30.9951 17.8136C31.0983 18.1068 31.1499 18.4305 31.1499 18.7847ZM31.1956 12.831L38.4407 12.8169L38.3739 15.6355L36.3928 15.7164L35.8897 22.015L33.0852 22.1628L33.0958 15.8607L31.1182 15.9697L31.1956 12.831ZM43.6767 12.8064L46.2665 21.7511L42.9729 22.1733L42.5718 20.6743H41.0587L40.7244 22.1733L37.3359 21.8425L39.982 12.9929L43.6767 12.8064ZM41.3367 18.6405H42.3325L41.8293 16.3287L41.3367 18.6405ZM54.1942 15.9134C54.1942 16.2606 54.1649 16.575 54.1062 16.8565C54.0452 17.138 53.9514 17.396 53.8247 17.6306C53.6957 17.8652 53.5292 18.0822 53.3251 18.2816C53.121 18.481 52.8747 18.671 52.5861 18.8516L54.1696 21.6701L51.1786 22.2542L50.1547 19.4252L49.3313 19.4498L49.2116 22.2155H46.3544C46.3755 21.2045 46.3966 20.1981 46.4178 19.1964C46.4365 18.1971 46.46 17.1919 46.4881 16.1809C46.4975 15.6718 46.5057 15.1663 46.5128 14.6643C46.5222 14.1646 46.5397 13.6603 46.5655 13.1512C46.8775 13.0363 47.1837 12.9413 47.4839 12.8662C47.7842 12.7911 48.0868 12.7325 48.3918 12.6903C48.6944 12.648 49.0017 12.6187 49.3137 12.6023C49.6257 12.5859 49.9459 12.5777 50.2743 12.5777C50.781 12.5777 51.2701 12.648 51.7416 12.7888C52.2131 12.9272 52.6307 13.136 52.9943 13.4151C53.3556 13.6943 53.6465 14.0426 53.867 14.4602C54.0851 14.8754 54.1942 15.3598 54.1942 15.9134ZM51.2173 16.1281C51.2173 15.9428 51.1927 15.7727 51.1434 15.6179C51.0918 15.4607 51.0156 15.3258 50.9147 15.2132C50.8162 15.1006 50.693 15.0126 50.5453 14.9493C50.3951 14.8836 50.2204 14.8508 50.021 14.8508C49.9342 14.8508 49.8485 14.8566 49.7641 14.8684C49.6796 14.8801 49.5975 14.8965 49.5178 14.9176L49.4122 17.3913H49.5706C49.7606 17.3913 49.9541 17.3667 50.1512 17.3174C50.3482 17.2682 50.5253 17.1931 50.6825 17.0922C50.8397 16.989 50.9687 16.8576 51.0696 16.6981C51.1681 16.5386 51.2173 16.3486 51.2173 16.1281ZM61.4604 18.7847C61.4604 19.3923 61.3549 19.9237 61.1437 20.3787C60.9326 20.8315 60.6441 21.2092 60.2781 21.5118C59.9145 21.8121 59.4876 22.0373 58.9973 22.1874C58.507 22.3375 57.9804 22.4126 57.4174 22.4126C57.2016 22.4126 56.9635 22.3844 56.7031 22.3281C56.445 22.2695 56.1835 22.1979 55.9184 22.1135C55.651 22.0267 55.3941 21.9329 55.1478 21.832C54.9038 21.7335 54.6857 21.6396 54.4933 21.5505L54.7889 18.8129C55.1642 19.0381 55.5818 19.2093 56.0416 19.3266C56.499 19.4439 56.9494 19.5026 57.3928 19.5026C57.4772 19.5026 57.5792 19.4991 57.6989 19.492C57.8185 19.4873 57.9323 19.4674 58.0402 19.4322C58.1481 19.3994 58.2396 19.3501 58.3147 19.2844C58.3897 19.2187 58.4273 19.1237 58.4273 18.9994C58.4273 18.9149 58.4015 18.8422 58.3499 18.7812C58.2959 18.7226 58.2267 18.6745 58.1422 18.637C58.0578 18.5994 57.9628 18.5701 57.8572 18.549C57.7517 18.5302 57.6473 18.5162 57.5441 18.5068C57.4432 18.4974 57.3482 18.4927 57.259 18.4927C57.1699 18.4927 57.0995 18.4927 57.0479 18.4927C56.6655 18.4927 56.3184 18.427 56.0064 18.2956C55.6944 18.1619 55.4269 17.9766 55.2041 17.7397C54.9789 17.5028 54.8041 17.2213 54.6798 16.8952C54.5555 16.5691 54.4933 16.2161 54.4933 15.836C54.4933 15.3129 54.5989 14.8437 54.81 14.4285C55.0211 14.0157 55.3026 13.6638 55.6545 13.3729C56.0064 13.082 56.411 12.8592 56.8685 12.7043C57.3235 12.5495 57.7951 12.4721 58.283 12.4721C58.4988 12.4721 58.7228 12.4803 58.9551 12.4967C59.185 12.5108 59.4137 12.5378 59.6412 12.5777C59.8688 12.6175 60.0916 12.6692 60.3098 12.7325C60.5256 12.7935 60.7309 12.8709 60.9256 12.9647L60.6757 15.6636C60.3731 15.5604 60.0576 15.4748 59.7292 15.4067C59.3984 15.3387 59.0759 15.3047 58.7615 15.3047C58.7029 15.3047 58.629 15.3059 58.5399 15.3082C58.4484 15.3106 58.3522 15.3164 58.2513 15.3258C58.1528 15.3375 58.0519 15.3551 57.9487 15.3786C57.8478 15.3997 57.7575 15.429 57.6778 15.4666C57.598 15.5041 57.5335 15.5545 57.4842 15.6179C57.435 15.6789 57.4127 15.7516 57.4174 15.836C57.4221 15.9322 57.4596 16.0108 57.53 16.0718C57.598 16.1304 57.686 16.1774 57.7939 16.2125C57.9018 16.2454 58.0214 16.2677 58.1528 16.2794C58.2842 16.2935 58.4144 16.3017 58.5434 16.304C58.6701 16.3064 58.7897 16.3064 58.9023 16.304C59.0125 16.3017 59.1029 16.3052 59.1732 16.3146C59.5275 16.3357 59.8465 16.4108 60.1303 16.5398C60.4142 16.6688 60.6546 16.8389 60.8517 17.05C61.0487 17.2635 61.1989 17.518 61.3021 17.8136C61.4076 18.1068 61.4604 18.4305 61.4604 18.7847Z" fill="white"/>
<defs>
<clipPath id="clip0_84_39">
<rect width="21.1765" height="23.8926" fill="white" transform="translate(0.539307 0.0537109)"/>
</clipPath>
<clipPath id="clip1_84_39">
<rect width="21.3547" height="24.0936" fill="white" transform="translate(0.539307 0.0537109)"/>
</clipPath>
</defs>
</svg>
