<svg width="160" height="48" viewBox="0 0 160 48" fill="none" xmlns="http://www.w3.org/2000/svg">
<path d="M154.074 48H5.92593C2.60741 48 0 45.36 0 42V6C0 2.64 2.60741 0 5.92593 0H154.074C157.393 0 160 2.64 160 6V42C160 45.36 157.393 48 154.074 48Z" fill="black"/>
<path d="M154.074 0.96C156.8 0.96 159.052 3.24 159.052 6V42C159.052 44.76 156.8 47.04 154.074 47.04H5.92593C3.2 47.04 0.948148 44.76 0.948148 42V6C0.948148 3.24 3.2 0.96 5.92593 0.96H154.074ZM154.074 0H5.92593C2.60741 0 0 2.76 0 6V42C0 45.36 2.60741 48 5.92593 48H154.074C157.393 48 160 45.36 160 42V6C160 2.76 157.393 0 154.074 0Z" fill="#A6A6A6"/>
<path d="M56.1775 12.24C56.1775 13.2 55.9405 14.04 55.3479 14.64C54.6368 15.36 53.8071 15.72 52.7405 15.72C51.6738 15.72 50.8442 15.36 50.1331 14.64C49.422 13.92 49.0664 13.08 49.0664 12C49.0664 10.92 49.422 10.08 50.1331 9.36003C50.8442 8.64003 51.6738 8.28003 52.7405 8.28003C53.2146 8.28003 53.6886 8.40003 54.1627 8.64003C54.6368 8.88003 54.9923 9.12003 55.2294 9.48003L54.6368 10.08C54.1627 9.48003 53.5701 9.24003 52.7405 9.24003C52.0294 9.24003 51.3183 9.48003 50.8442 10.08C50.2516 10.56 50.0146 11.28 50.0146 12.12C50.0146 12.96 50.2516 13.68 50.8442 14.16C51.4368 14.64 52.0294 15 52.7405 15C53.5701 15 54.1627 14.76 54.7553 14.16C55.1108 13.8 55.3479 13.32 55.3479 12.72H52.7405V11.76H56.1775V12.24ZM61.6294 9.24003H58.4294V11.52H61.3923V12.36H58.4294V14.64H61.6294V15.6H57.4812V8.40003H61.6294V9.24003ZM65.5405 15.6H64.5923V9.24003H62.5775V8.40003H67.5553V9.24003H65.5405V15.6ZM70.9923 15.6V8.40003H71.9405V15.6H70.9923ZM75.9701 15.6H75.022V9.24003H73.0071V8.40003H77.8664V9.24003H75.8516V15.6H75.9701ZM87.2294 14.64C86.5183 15.36 85.6886 15.72 84.622 15.72C83.5553 15.72 82.7257 15.36 82.0145 14.64C81.3034 13.92 80.9479 13.08 80.9479 12C80.9479 10.92 81.3034 10.08 82.0145 9.36003C82.7257 8.64003 83.5553 8.28003 84.622 8.28003C85.6886 8.28003 86.5183 8.64003 87.2294 9.36003C87.9405 10.08 88.296 10.92 88.296 12C88.296 13.08 87.9405 13.92 87.2294 14.64ZM82.7257 14.04C83.1997 14.52 83.9109 14.88 84.622 14.88C85.3331 14.88 86.0442 14.64 86.5183 14.04C86.9923 13.56 87.3479 12.84 87.3479 12C87.3479 11.16 87.1108 10.44 86.5183 9.96003C86.0442 9.48003 85.3331 9.12003 84.622 9.12003C83.9109 9.12003 83.1997 9.36003 82.7257 9.96003C82.2516 10.44 81.896 11.16 81.896 12C81.896 12.84 82.1331 13.56 82.7257 14.04ZM89.5997 15.6V8.40003H90.6664L94.1034 14.04V8.40003H95.0516V15.6H94.1034L90.4294 9.72003V15.6H89.5997Z" fill="white" stroke="white" stroke-width="0.235" stroke-miterlimit="10"/>
<path d="M80.7114 26.16C77.867 26.16 75.6151 28.32 75.6151 31.32C75.6151 34.2 77.867 36.48 80.7114 36.48C83.5559 36.48 85.8077 34.32 85.8077 31.32C85.8077 28.2 83.5559 26.16 80.7114 26.16ZM80.7114 34.32C79.1707 34.32 77.867 33 77.867 31.2C77.867 29.4 79.1707 28.08 80.7114 28.08C82.2522 28.08 83.5559 29.28 83.5559 31.2C83.5559 33 82.2522 34.32 80.7114 34.32ZM69.6892 26.16C66.8448 26.16 64.5929 28.32 64.5929 31.32C64.5929 34.2 66.8448 36.48 69.6892 36.48C72.5336 36.48 74.7855 34.32 74.7855 31.32C74.7855 28.2 72.5336 26.16 69.6892 26.16ZM69.6892 34.32C68.1485 34.32 66.8448 33 66.8448 31.2C66.8448 29.4 68.1485 28.08 69.6892 28.08C71.2299 28.08 72.5337 29.28 72.5337 31.2C72.5337 33 71.2299 34.32 69.6892 34.32ZM56.5337 27.72V29.88H61.6299C61.5114 31.08 61.0374 32.04 60.4448 32.64C59.7337 33.36 58.5485 34.2 56.5337 34.2C53.3337 34.2 50.9633 31.68 50.9633 28.44C50.9633 25.2 53.4522 22.68 56.5337 22.68C58.1929 22.68 59.4966 23.4 60.4448 24.24L61.9855 22.68C60.6818 21.48 59.0225 20.52 56.6522 20.52C52.3855 20.52 48.7114 24.12 48.7114 28.44C48.7114 32.76 52.3855 36.36 56.6522 36.36C59.0225 36.36 60.6818 35.64 62.104 34.08C63.5262 32.64 64.0003 30.6 64.0003 29.04C64.0003 28.56 64.0003 28.08 63.8818 27.72H56.5337ZM110.341 29.4C109.867 28.2 108.682 26.16 106.074 26.16C103.467 26.16 101.334 28.2 101.334 31.32C101.334 34.2 103.467 36.48 106.311 36.48C108.563 36.48 109.986 35.04 110.46 34.2L108.8 33C108.208 33.84 107.497 34.44 106.311 34.44C105.126 34.44 104.415 33.96 103.823 32.88L110.578 30L110.341 29.4ZM103.467 31.08C103.467 29.16 105.008 28.08 106.074 28.08C106.904 28.08 107.734 28.56 107.971 29.16L103.467 31.08ZM97.8966 36H100.148V21H97.8966V36ZM94.3411 27.24C93.7485 26.64 92.8003 26.04 91.6151 26.04C89.1262 26.04 86.7559 28.32 86.7559 31.2C86.7559 34.08 89.0077 36.24 91.6151 36.24C92.8003 36.24 93.7485 35.64 94.2225 35.04H94.3411V35.76C94.3411 37.68 93.2744 38.76 91.6151 38.76C90.3114 38.76 89.3633 37.8 89.1262 36.96L87.2299 37.8C87.8225 39.12 89.2448 40.8 91.7337 40.8C94.3411 40.8 96.4744 39.24 96.4744 35.52V26.4H94.3411V27.24ZM91.7337 34.32C90.1929 34.32 88.8892 33 88.8892 31.2C88.8892 29.4 90.1929 28.08 91.7337 28.08C93.2744 28.08 94.4596 29.4 94.4596 31.2C94.4596 33 93.2744 34.32 91.7337 34.32ZM120.652 21H115.319V36H117.571V30.36H120.652C123.141 30.36 125.511 28.56 125.511 25.68C125.511 22.8 123.141 21 120.652 21ZM120.771 28.2H117.571V23.04H120.771C122.43 23.04 123.378 24.48 123.378 25.56C123.26 26.88 122.311 28.2 120.771 28.2ZM134.4 26.04C132.741 26.04 131.082 26.76 130.489 28.32L132.504 29.16C132.978 28.32 133.689 28.08 134.519 28.08C135.704 28.08 136.771 28.8 136.889 30V30.12C136.534 29.88 135.586 29.52 134.637 29.52C132.504 29.52 130.371 30.72 130.371 32.88C130.371 34.92 132.148 36.24 134.045 36.24C135.586 36.24 136.297 35.52 136.889 34.8H137.008V36H139.141V30.24C138.904 27.6 136.889 26.04 134.4 26.04ZM134.163 34.32C133.452 34.32 132.385 33.96 132.385 33C132.385 31.8 133.689 31.44 134.756 31.44C135.704 31.44 136.178 31.68 136.771 31.92C136.534 33.36 135.348 34.32 134.163 34.32ZM146.608 26.4L144.119 32.88H144L141.393 26.4H139.023L142.934 35.52L140.682 40.56H142.934L148.978 26.4H146.608ZM126.697 36H128.948V21H126.697V36Z" fill="white"/>
<path d="M12.3259 9C11.9703 9.36 11.8518 9.96 11.8518 10.68V37.2C11.8518 37.92 12.0888 38.52 12.4444 38.88L12.5629 39L27.2592 24.12V23.88L12.3259 9Z" fill="url(#paint0_linear_8_56)"/>
<path d="M31.9999 29.1601L27.1406 24.2401V23.8801L31.9999 18.9601L32.1184 19.0801L37.9258 22.4401C39.5851 23.4001 39.5851 24.9601 37.9258 25.9201L31.9999 29.1601Z" fill="url(#paint1_linear_8_56)"/>
<path d="M32.1185 29.04L27.1407 24L12.3259 39C12.9185 39.6 13.7482 39.6 14.8148 39.12L32.1185 29.04Z" fill="url(#paint2_linear_8_56)"/>
<path d="M32.1185 18.9602L14.8148 9.00018C13.7482 8.40018 12.9185 8.52018 12.3259 9.12018L27.1407 24.0002L32.1185 18.9602Z" fill="url(#paint3_linear_8_56)"/>
<path opacity="0.2" d="M32 28.9202L14.8148 38.7602C13.8667 39.3602 13.037 39.2402 12.4444 38.7602L12.3259 38.8802L12.4444 39.0002C13.037 39.4802 13.8667 39.6002 14.8148 39.0002L32 28.9202Z" fill="black"/>
<path opacity="0.12" d="M12.3259 38.76C11.9703 38.4 11.8518 37.8 11.8518 37.08V37.2C11.8518 37.92 12.0888 38.52 12.4444 38.88V38.76H12.3259ZM37.9259 25.56L32 28.92L32.1185 29.04L37.9259 25.68C38.7555 25.2 39.1111 24.6 39.1111 24C39.1111 24.6 38.637 25.08 37.9259 25.56Z" fill="black"/>
<path opacity="0.25" d="M14.8148 9.12003L37.9259 22.44C38.637 22.92 39.1111 23.4 39.1111 24C39.1111 23.4 38.7555 22.8 37.9259 22.32L14.8148 9.00003C13.1555 8.04003 11.8518 8.76003 11.8518 10.68V10.8C11.8518 9.00003 13.1555 8.16003 14.8148 9.12003Z" fill="white"/>
<defs>
<linearGradient id="paint0_linear_8_56" x1="25.837" y1="10.452" x2="5.69896" y2="30.3402" gradientUnits="userSpaceOnUse">
<stop stop-color="#00A0FF"/>
<stop offset="0.007" stop-color="#00A1FF"/>
<stop offset="0.26" stop-color="#00BEFF"/>
<stop offset="0.512" stop-color="#00D2FF"/>
<stop offset="0.76" stop-color="#00DFFF"/>
<stop offset="1" stop-color="#00E3FF"/>
</linearGradient>
<linearGradient id="paint1_linear_8_56" x1="40.0994" y1="24.0013" x2="11.4215" y2="24.0013" gradientUnits="userSpaceOnUse">
<stop stop-color="#FFE000"/>
<stop offset="0.409" stop-color="#FFBD00"/>
<stop offset="0.775" stop-color="#FFA500"/>
<stop offset="1" stop-color="#FF9C00"/>
</linearGradient>
<linearGradient id="paint2_linear_8_56" x1="29.4246" y1="26.7552" x2="2.1171" y2="53.7256" gradientUnits="userSpaceOnUse">
<stop stop-color="#FF3A44"/>
<stop offset="1" stop-color="#C31162"/>
</linearGradient>
<linearGradient id="paint3_linear_8_56" x1="8.6483" y1="0.211384" x2="20.843" y2="12.2555" gradientUnits="userSpaceOnUse">
<stop stop-color="#32A071"/>
<stop offset="0.069" stop-color="#2DA771"/>
<stop offset="0.476" stop-color="#15CF74"/>
<stop offset="0.801" stop-color="#06E775"/>
<stop offset="1" stop-color="#00F076"/>
</linearGradient>
</defs>
</svg>
